<svg xmlns="http://www.w3.org/2000/svg" viewBox="0 0 128 160" width="128" height="160" shape-rendering="crispEdges">
  <rect width="128" height="160" fill="none"/>
  <rect x="48" y="8" width="32" height="8" fill="#111111"/>
  <rect x="32" y="16" width="64" height="8" fill="#8d4a14"/>
  <rect x="24" y="24" width="80" height="8" fill="#8d4a14"/>
  <rect x="16" y="32" width="96" height="8" fill="#8d4a14"/>
  <rect x="12" y="40" width="104" height="8" fill="#8d4a14"/>
  <rect x="12" y="48" width="104" height="8" fill="#8d4a14"/>
  <rect x="8" y="56" width="112" height="8" fill="#8d4a14"/>
  <rect x="8" y="64" width="112" height="8" fill="#8d4a14"/>
  <rect x="16" y="72" width="96" height="8" fill="#6d3b66"/>
  <rect x="24" y="80" width="80" height="8" fill="#f4d08a"/>
  <rect x="32" y="88" width="64" height="8" fill="#f4d08a"/>
  <rect x="8" y="72" width="8" height="56" fill="#111111"/>
  <rect x="112" y="64" width="8" height="64" fill="#111111"/>
  <rect x="16" y="80" width="8" height="48" fill="#75434f"/>
  <rect x="104" y="72" width="8" height="56" fill="#75434f"/>
  <rect x="40" y="48" width="48" height="40" fill="#f4d08a"/>
  <rect x="48" y="56" width="8" height="16" fill="#3557a4"/>
  <rect x="72" y="56" width="8" height="16" fill="#3557a4"/>
  <rect x="48" y="88" width="32" height="8" fill="#75434f"/>
  <rect x="16" y="96" width="24" height="8" fill="#476a48"/>
  <rect x="16" y="104" width="16" height="24" fill="#476a48"/>
  <rect x="32" y="104" width="8" height="16" fill="#3557a4"/>
  <rect x="40" y="96" width="8" height="8" fill="#476a48"/>
  <rect x="48" y="96" width="32" height="40" fill="#2e5ca5"/>
  <rect x="40" y="104" width="8" height="8" fill="#2e5ca5"/>
  <rect x="80" y="104" width="8" height="8" fill="#2e5ca5"/>
  <rect x="56" y="104" width="16" height="8" fill="#3b77c4"/>
  <rect x="56" y="112" width="16" height="8" fill="#3b77c4"/>
  <rect x="48" y="120" width="32" height="8" fill="#3557a4"/>
  <rect x="24" y="112" width="16" height="16" fill="#f4d08a"/>
  <rect x="88" y="112" width="16" height="16" fill="#f4d08a"/>
  <rect x="40" y="136" width="24" height="8" fill="#75434f"/>
  <rect x="72" y="136" width="16" height="8" fill="#75434f"/>
  <rect x="40" y="144" width="16" height="16" fill="#75434f"/>
  <rect x="72" y="144" width="16" height="16" fill="#75434f"/>
  <rect x="56" y="136" width="8" height="24" fill="#4b2a33"/>
  <rect x="24" y="128" width="8" height="8" fill="#111111"/>
  <rect x="32" y="128" width="8" height="8" fill="#f4d08a"/>
  <rect x="88" y="128" width="8" height="8" fill="#111111"/>
  <rect x="96" y="128" width="8" height="8" fill="#f4d08a"/>
</svg>
